<mxfile host="app.diagrams.net" agent="Mozilla/5.0 (Macintosh; Intel Mac OS X 10_15_7) AppleWebKit/537.36 (KHTML, like Gecko) Chrome/129.0.0.0 Safari/537.36" version="24.7.17">
  <diagram name="第 1 页" id="vOJIu3CieS20mVWxzKMo">
    <mxGraphModel dx="1026" dy="650" grid="1" gridSize="10" guides="1" tooltips="1" connect="1" arrows="1" fold="1" page="1" pageScale="1" pageWidth="827" pageHeight="1169" math="0" shadow="0">
      <root>
        <mxCell id="0" />
        <mxCell id="1" parent="0" />
        <mxCell id="DSAUGas0H_0PV85itKCL-3" value="" style="edgeStyle=orthogonalEdgeStyle;rounded=0;orthogonalLoop=1;jettySize=auto;html=1;" edge="1" parent="1" source="DSAUGas0H_0PV85itKCL-1" target="DSAUGas0H_0PV85itKCL-2">
          <mxGeometry relative="1" as="geometry" />
        </mxCell>
        <mxCell id="DSAUGas0H_0PV85itKCL-1" value="标签删除" style="ellipse;whiteSpace=wrap;html=1;" vertex="1" parent="1">
          <mxGeometry x="300" y="70" width="90" height="50" as="geometry" />
        </mxCell>
        <mxCell id="DSAUGas0H_0PV85itKCL-5" value="" style="edgeStyle=orthogonalEdgeStyle;rounded=0;orthogonalLoop=1;jettySize=auto;html=1;" edge="1" parent="1" source="DSAUGas0H_0PV85itKCL-2" target="DSAUGas0H_0PV85itKCL-4">
          <mxGeometry relative="1" as="geometry" />
        </mxCell>
        <mxCell id="DSAUGas0H_0PV85itKCL-6" value="不存在" style="edgeLabel;html=1;align=center;verticalAlign=middle;resizable=0;points=[];" vertex="1" connectable="0" parent="DSAUGas0H_0PV85itKCL-5">
          <mxGeometry y="3" relative="1" as="geometry">
            <mxPoint as="offset" />
          </mxGeometry>
        </mxCell>
        <mxCell id="DSAUGas0H_0PV85itKCL-8" value="" style="edgeStyle=orthogonalEdgeStyle;rounded=0;orthogonalLoop=1;jettySize=auto;html=1;" edge="1" parent="1" source="DSAUGas0H_0PV85itKCL-2" target="DSAUGas0H_0PV85itKCL-7">
          <mxGeometry relative="1" as="geometry" />
        </mxCell>
        <mxCell id="DSAUGas0H_0PV85itKCL-2" value="校验标签是否存在" style="rhombus;whiteSpace=wrap;html=1;" vertex="1" parent="1">
          <mxGeometry x="287.5" y="180" width="115" height="75" as="geometry" />
        </mxCell>
        <mxCell id="DSAUGas0H_0PV85itKCL-4" value="返回标签不存在" style="whiteSpace=wrap;html=1;" vertex="1" parent="1">
          <mxGeometry x="110" y="198.75" width="100" height="37.5" as="geometry" />
        </mxCell>
        <mxCell id="DSAUGas0H_0PV85itKCL-10" value="" style="edgeStyle=orthogonalEdgeStyle;rounded=0;orthogonalLoop=1;jettySize=auto;html=1;" edge="1" parent="1" source="DSAUGas0H_0PV85itKCL-7" target="DSAUGas0H_0PV85itKCL-9">
          <mxGeometry relative="1" as="geometry" />
        </mxCell>
        <mxCell id="DSAUGas0H_0PV85itKCL-11" value="存在" style="edgeLabel;html=1;align=center;verticalAlign=middle;resizable=0;points=[];" vertex="1" connectable="0" parent="DSAUGas0H_0PV85itKCL-10">
          <mxGeometry x="-0.1692" y="1" relative="1" as="geometry">
            <mxPoint as="offset" />
          </mxGeometry>
        </mxCell>
        <mxCell id="DSAUGas0H_0PV85itKCL-15" value="" style="edgeStyle=orthogonalEdgeStyle;rounded=0;orthogonalLoop=1;jettySize=auto;html=1;" edge="1" parent="1" source="DSAUGas0H_0PV85itKCL-7" target="DSAUGas0H_0PV85itKCL-14">
          <mxGeometry relative="1" as="geometry" />
        </mxCell>
        <mxCell id="DSAUGas0H_0PV85itKCL-7" value="校验标签是否存在&lt;div&gt;人群或标签引用&lt;/div&gt;" style="rhombus;whiteSpace=wrap;html=1;" vertex="1" parent="1">
          <mxGeometry x="283.75" y="320" width="122.5" height="80" as="geometry" />
        </mxCell>
        <mxCell id="DSAUGas0H_0PV85itKCL-9" value="返回引用标签人群&lt;div&gt;不可删除&lt;/div&gt;" style="whiteSpace=wrap;html=1;" vertex="1" parent="1">
          <mxGeometry x="82.5" y="330" width="120" height="60" as="geometry" />
        </mxCell>
        <mxCell id="DSAUGas0H_0PV85itKCL-17" value="" style="edgeStyle=orthogonalEdgeStyle;rounded=0;orthogonalLoop=1;jettySize=auto;html=1;" edge="1" parent="1" source="DSAUGas0H_0PV85itKCL-14" target="DSAUGas0H_0PV85itKCL-16">
          <mxGeometry relative="1" as="geometry" />
        </mxCell>
        <mxCell id="DSAUGas0H_0PV85itKCL-14" value="软删除基础信表&lt;div&gt;标签状态&lt;/div&gt;" style="shape=process;whiteSpace=wrap;html=1;backgroundOutline=1;" vertex="1" parent="1">
          <mxGeometry x="285" y="460" width="120" height="60" as="geometry" />
        </mxCell>
        <mxCell id="DSAUGas0H_0PV85itKCL-19" value="" style="edgeStyle=orthogonalEdgeStyle;rounded=0;orthogonalLoop=1;jettySize=auto;html=1;" edge="1" parent="1" source="DSAUGas0H_0PV85itKCL-16" target="DSAUGas0H_0PV85itKCL-18">
          <mxGeometry relative="1" as="geometry" />
        </mxCell>
        <mxCell id="DSAUGas0H_0PV85itKCL-16" value="修改记录表记录&lt;div&gt;删除信息&lt;/div&gt;" style="shape=process;whiteSpace=wrap;html=1;backgroundOutline=1;" vertex="1" parent="1">
          <mxGeometry x="285" y="584.5" width="120" height="60" as="geometry" />
        </mxCell>
        <mxCell id="DSAUGas0H_0PV85itKCL-18" value="返回删除成功" style="whiteSpace=wrap;html=1;" vertex="1" parent="1">
          <mxGeometry x="485" y="584.5" width="120" height="60" as="geometry" />
        </mxCell>
      </root>
    </mxGraphModel>
  </diagram>
</mxfile>
